# xmcd CD database file generated by Grip 3.7.0
# 
# Track frame offsets:
#       150
#       22981
#       38827
#       50571
#       68352
#       85758
#       100707
#       114878
#       128099
#       148206
#       172199
# 
# Disc length: 2472 seconds
# 
# Revision: 4
# Processed by: cddbd v1.5.2PL0 Copyright (c) Steve Scherf et al.
# Submitted via: Grip 3.7.0
# 
DISCID=8909a60b
DTITLE=pillows, the - MY FOOT
DYEAR=2006
DGENRE=Rock
TTITLE0=MY FOOT
TTITLE1=ROCK'N'ROLL SINNERS
TTITLE2=THE AIR LESISTER
TTITLE3=THIRD EYE
TTITLE4=Mighty lovers
TTITLE5=Non Fiction
TTITLE6=Degeneration
TTITLE7=MARCH OF GOD
TTITLE8=My girl -Document Ver.-
TTITLE9=SO LONG UNIVERSE
TTITLE10=Gazelle city
EXTD=YEAR: 2006
EXTT0=
EXTT1=
EXTT2=
EXTT3=
EXTT4=
EXTT5=
EXTT6=
EXTT7=
EXTT8=
EXTT9=
EXTT10=
PLAYORDER=
